# xmcd
# 
# Track frame offsets:
#     150
#     23987
#     48292
#     65467
#     86075
#     104775
#     124942
#     145670
#     169780
#     191332
#     211237
#     231712
#     253120
#     275182
#     297050
# 
# Disc length: 4277
# 
# Revision: 3
# Processed by: cddbd v1.5.2PL0 Copyright (c) Steve Scherf et al.
# Submitted via: BonkEnc v1.0.8
# 
DISCID=ea10b30f
DTITLE=松田聖子 - Bible 3 [CD2]
DYEAR=0
DGENRE=J-Pop
TTITLE0=螢の草原
TTITLE1=マリオネットの涙
TTITLE2=Kimono Beat
TTITLE3=抱いて…
TTITLE4=Marrakech
TTITLE5=Precious Heart
TTITLE6=We Are Love
TTITLE7=Believe In Love
TTITLE8=きっと、また逢える…
TTITLE9=大切なあなた
TTITLE10=Baby,Make Love Tonight
TTITLE11=はじまりはBreak Up
TTITLE12=輝いた季節へ旅立とう
TTITLE13=素敵にOnce Again
TTITLE14=Why
EXTD=
EXTT0=
EXTT1=
EXTT2=
EXTT3=
EXTT4=
EXTT5=
EXTT6=
EXTT7=
EXTT8=
EXTT9=
EXTT10=
EXTT11=
EXTT12=
EXTT13=
EXTT14=
PLAYORDER=
